<svg xmlns="http://www.w3.org/2000/svg" viewBox="0 0 64 64">
  <defs>
    <linearGradient id="bg" x1="0%" y1="0%" x2="100%" y2="100%">
      <stop offset="0%" stop-color="#8b5cf6"/>
      <stop offset="100%" stop-color="#6d28d9"/>
    </linearGradient>
  </defs>
  <rect width="64" height="64" rx="14" fill="url(#bg)"/>
  <!-- Gauge -->
  <path d="M 14 38 A 21 21 0 0 1 20 24" stroke="#60a5fa" stroke-width="5" fill="none" stroke-linecap="round"/>
  <path d="M 23 21 A 21 21 0 0 1 41 21" stroke="#4ade80" stroke-width="5" fill="none" stroke-linecap="round"/>
  <path d="M 44 24 A 21 21 0 0 1 49 33" stroke="#fbbf24" stroke-width="5" fill="none" stroke-linecap="round"/>
  <path d="M 50 35 A 21 21 0 0 1 50 38" stroke="#f87171" stroke-width="5" fill="none" stroke-linecap="round"/>
  <!-- Person - head -->
  <circle cx="30" cy="37" r="4" fill="white"/>
  <!-- Person - body -->
  <line x1="30.5" y1="41" x2="32" y2="50" stroke="white" stroke-width="2.5" stroke-linecap="round"/>
  <!-- Person - arm forward -->
  <path d="M 31 44 L 37 40" stroke="white" stroke-width="2" fill="none" stroke-linecap="round"/>
  <!-- Person - arm back -->
  <path d="M 31 45 L 26 48" stroke="white" stroke-width="2" fill="none" stroke-linecap="round"/>
  <!-- Person - legs -->
  <path d="M 32 50 L 28 57" stroke="white" stroke-width="2" fill="none" stroke-linecap="round"/>
  <path d="M 32 50 L 37 56" stroke="white" stroke-width="2" fill="none" stroke-linecap="round"/>
  <!-- Heart -->
  <path d="M 38 40 C 38 38.5, 40 37.5, 41.5 39 C 43 37.5, 45 38.5, 45 40 C 45 42.5, 41.5 44.5, 41.5 44.5 C 41.5 44.5, 38 42.5, 38 40 Z" fill="#f472b6"/>
</svg>
